<svg width="215" height="180" viewBox="0 0 215 180" fill="none" xmlns="http://www.w3.org/2000/svg">
<path d="M39.9057 93.456C39.7014 93.8288 39.4971 94.2016 39.2981 94.5848C39.4971 94.3381 39.6805 94.1018 39.8376 93.8813C39.8376 93.8813 39.8638 93.7238 39.9057 93.456Z" fill="white" style="mix-blend-mode:difference"/>
<path d="M34.909 69.2204C34.8042 69.2677 34.6995 69.3202 34.5947 69.3727C34.8042 69.3517 34.9404 69.3202 34.909 69.2204Z" fill="white" style="mix-blend-mode:difference"/>
<path d="M39.2981 94.5848C39.23 94.6741 39.1619 94.7633 39.0886 94.8526C39.1148 94.8526 39.1357 94.8421 39.1619 94.8421C39.2091 94.7528 39.2562 94.6741 39.2981 94.5848Z" fill="white" style="mix-blend-mode:difference"/>
<path d="M40.2147 91.5029C40.2147 91.5029 40.4452 90.0433 41.985 89.1875C42.0741 88.6414 40.5551 89.3135 40.6442 88.7675C43.462 86.5361 45.3528 84.5672 46.2904 81.963C46.2904 81.963 47.6522 81.123 47.7988 80.2094C49.213 77.9202 51.8737 74.4445 53.0522 72.5334C54.1242 72.4389 54.7073 72.0871 54.8016 71.4781C55.0582 69.8347 56.8442 69.6772 57.2737 66.9365C56.2052 67.031 55.8858 69.0419 55.8858 69.0419C53.3664 70.5278 51.9837 73.7095 50.4753 75.4683L49.5849 75.5471C49.4696 76.2786 49.3841 76.8264 49.3282 77.1904C46.1856 79.2696 45.3528 84.5672 40.9637 86.7566C40.0261 89.3607 37.2764 92.3062 36.8469 95.0521C38.3553 93.2985 39.6857 91.5554 40.5656 89.3187C40.4504 90.0485 39.6857 91.5606 40.2199 91.5134L40.2147 91.5029Z" fill="white" style="mix-blend-mode:difference"/>
<path d="M0 85.297C1.83318 84.0789 3.56684 82.9606 5.28479 81.921L5.31098 81.7635C3.53018 82.9973 1.22037 84.2837 0.00523765 85.2917L0 85.297Z" fill="white" style="mix-blend-mode:difference"/>
<path d="M33.39 69.924C33.8143 69.7297 34.2071 69.5459 34.5947 69.3674C34.1704 69.4094 33.4686 69.4199 33.39 69.924Z" fill="white" style="mix-blend-mode:difference"/>
<path d="M94.9377 44.5175C94.9429 44.4808 94.9429 44.444 94.9482 44.4073C94.681 44.5648 94.4401 44.6803 94.2987 44.7381C94.4139 44.6961 94.6182 44.6226 94.9377 44.5175Z" fill="white" style="mix-blend-mode:difference"/>
<path d="M57.9127 69.5774C57.8289 70.1287 56.5824 71.3153 55.1944 73.4207C56.4357 72.2289 58.7141 70.05 57.9127 69.5774Z" fill="white" style="mix-blend-mode:difference"/>
<path d="M94.2987 44.7381C94.1468 44.8063 94.1154 44.8063 94.2987 44.7381Z" fill="white" style="mix-blend-mode:difference"/>
<path d="M55.1996 73.4207C50.3967 79.2538 44.9286 85.0082 40.7542 91.9964L41.5608 91.9282C45.1852 85.6592 51.0147 79.9206 55.2049 73.4259L55.1996 73.4207Z" fill="white" style="mix-blend-mode:difference"/>
<path d="M66.8167 59.9641C68.9589 59.775 70.2788 56.9609 71.7873 55.202C69.5298 56.1208 69.1265 58.683 66.8167 59.9641Z" fill="white" style="mix-blend-mode:difference"/>
<path d="M40.1257 92.0489C40.0314 92.6475 39.9581 93.1357 39.9057 93.456C40.178 92.9625 40.4609 92.4742 40.7489 91.9964L40.1257 92.0489Z" fill="white" style="mix-blend-mode:difference"/>
<path d="M91.6589 22.8126L91.858 21.5315C91.858 21.5315 90.4071 22.9229 91.6589 22.8126Z" fill="white" style="mix-blend-mode:difference"/>
<path d="M16.352 77.5527L17.0643 77.4897C20.9244 76.4291 24.5332 72.5071 26.6754 72.3181C29.2837 70.2862 32.3163 70.0185 34.5999 68.9159C34.7937 69.0577 34.8828 69.1522 34.9037 69.2152C36.5955 68.4066 37.9206 67.6611 39.1672 66.7108C45.4785 64.6264 51.1509 61.6442 57.3837 59.4548C57.1585 59.6018 56.9595 59.7383 56.6243 59.7698C54.8435 61.0089 57.1637 60.8041 56.2786 61.9644C54.414 63.7496 53.2617 65.4717 50.8367 67.4878C50.4072 70.2285 47.4636 71.0318 47.6836 72.9902L47.1493 73.0374C46.9765 74.1347 45.3738 74.2765 44.1848 75.1008C41.1051 82.404 32.6044 89.4605 29.048 97.5198C27.9795 97.6143 27.8329 98.5278 27.8329 98.5278C23.9937 103.915 17.1271 110.992 15.4354 117.272L14.3616 117.366C13.6703 121.755 6.67277 125.971 9.08209 130.807C11.041 129.557 13.3665 130.434 13.906 131.463C14.7649 125.982 19.4212 123.225 21.2387 118.379L22.6686 118.253C22.9252 116.61 25.3555 114.594 24.5436 113.04L25.6174 112.945C25.963 110.751 28.3671 110 28.6814 107.989C32.1435 104.981 33.8248 100.701 37.643 97.6615C37.8211 96.5275 38.4653 95.6139 39.0729 94.8421C38.0673 94.9786 37.8787 95.9972 36.8259 95.0364C34.6837 95.2254 34.2542 97.9661 32.6515 99.1894C32.4315 97.2258 33.5157 93.708 33.7724 92.0594L35.197 91.9334C38.1982 86.263 42.8283 83.6956 44.7296 78.2983C46.987 77.3795 47.2436 75.7361 47.3903 74.8173C46.7094 75.7781 46.5365 76.8754 44.8448 77.5632C43.8601 77.1117 46.856 74.8645 47.3903 74.8173C50.7162 73.804 51.2923 70.1497 51.5804 68.3226C51.4652 69.0542 51.1108 69.4462 50.5172 69.4987C53.7855 65.8129 55.8334 62.668 58.5989 59.8958C59.0807 60.8251 58.0646 61.8069 58.0646 61.8069C59.3059 60.6151 61.7048 58.7827 60.6311 57.7957C60.4897 58.683 59.8245 59.2553 59.0074 59.4915C59.1907 59.313 59.374 59.1398 59.5678 58.9665L59.7407 57.8744C60.6311 57.7957 62.9199 56.6931 62.7733 57.6067C62.6004 58.704 60.3744 59.439 60.0287 61.6337C62.5166 59.25 63.8522 58.5937 64.2817 55.853C65.235 56.4883 66.7801 55.6325 66.7801 55.6325C63.7632 59.145 59.6569 64.0121 57.1218 67.8396C58.4522 66.1017 59.5154 64.9256 60.9087 63.9071C60.9087 63.9071 61.7991 63.8283 61.9143 63.0985C61.1967 62.0799 60.9087 63.9071 61.0239 63.1773C61.1967 62.0799 62.0871 62.0012 63.3389 61.8909C63.3948 61.5234 63.4803 60.9739 63.5956 60.2423L64.6641 60.1478C64.8369 59.0505 65.0935 57.4071 66.5234 57.2811C65.3554 55.7585 69.5246 56.1156 68.5609 54.3987C69.8127 54.2884 70.0693 52.6451 70.8445 53.2961C70.1531 53.9577 69.7498 54.6542 69.6346 55.3858L68.2728 56.2258C65.9211 61.1191 60.762 64.8154 58.9079 68.7636C63.0456 63.7128 66.9791 58.8615 70.6978 54.2097C71.9496 54.0994 71.7768 55.1967 71.7768 55.1967C72.9814 53.1071 75.5165 53.7844 75.7784 52.141C75.9512 51.0437 74.7099 52.2356 75.9512 51.0437C77.9101 49.7889 79.2038 47.1532 82.6083 49.0171C82.7811 47.9198 84.5671 47.7623 84.0224 46.7279C82.9539 46.8224 82.6083 49.0171 81.3512 48.0458C82.7759 47.9198 82.9487 46.8224 83.0639 46.0926C84.0172 46.7279 87.1284 43.751 89.8048 43.52C89.5743 44.9796 88.1497 45.1056 88.0607 45.6569C88.0607 45.6569 89.5743 44.9848 90.8209 44.8746C87.9402 46.3867 85.8032 46.5757 84.5567 47.7675C85.4575 48.7703 89.4853 45.5361 91.6275 45.3471C91.1666 42.6852 93.843 42.4489 96.4252 41.6824C96.3414 42.2336 95.2677 42.3229 93.843 42.4489C93.7278 43.163 95.0739 43.0632 94.9377 44.4073C95.4824 44.087 96.1319 43.583 96.2262 42.9634C96.701 42.9214 97.4151 42.8584 98.3684 42.7744C98.4836 42.0446 97.0537 42.1654 98.4836 42.0446L99.7354 41.9344C106.33 39.1937 113.531 34.7729 121.288 32.4732C122.357 32.3787 122.53 31.2867 123.431 32.2842C128.029 29.9006 133.497 28.6983 137.473 25.8263C139.432 24.5715 141.93 24.351 143.826 23.4689C148.11 23.0909 151.719 19.1689 155.637 17.746C155.693 17.382 155.789 16.773 155.925 15.9189L156.637 15.8559C158.209 14.8163 158.381 13.719 159.183 13.11C158.708 13.152 158.509 12.928 158.586 12.4379L159.298 12.3749C158.727 11.5244 159.015 9.69725 157.02 8.97271C157.905 7.81238 157.192 7.87539 157.365 6.77806C151.101 4.08464 146.722 -1.66449 134.77 0.467148C127.275 1.12344 119.403 4.15814 112.667 6.73081C112.667 6.73081 111.3 7.57086 111.415 6.84107L109.336 7.74413C110.745 4.37341 107.445 5.20296 106.665 3.47035C105.774 3.5491 105.858 3.00306 104.606 3.10807C104.523 3.65411 105.769 3.54385 104.318 4.93519C104.517 3.65411 103.177 3.23408 102.464 3.29708C101.108 5.21871 102.092 5.67024 101.778 7.68637C101.663 8.41617 100.275 10.5216 98.8502 10.6423C98.6774 11.7396 98.6459 11.9234 98.6459 11.9234C94.1154 16.1079 90.4071 22.9229 86.1437 26.5404C81.7074 31.2552 78.1667 36.9728 72.8348 40.6848C70.0065 45.2578 66.3663 49.3636 61.6734 51.217C51.439 56.9819 39.8638 62.3215 30.0798 68.5904C24.8265 70.6748 20.165 73.4259 15.3987 76.9122C11.7271 78.2983 8.53737 79.9521 5.28479 81.921L5.13814 82.8608C9.4173 81.4065 11.5752 78.8706 16.3572 77.5527H16.352ZM29.8127 99.4467C31.0593 99.3364 29.5561 101.09 29.4408 101.82C27.4139 101.279 29.6975 100.176 29.8127 99.4467ZM32.0178 99.9717C32.2954 101.568 26.6335 106.561 25.3031 108.299C26.8063 105.464 30.6874 101.71 32.0178 99.9717ZM33.9767 99.7984C34.0919 99.0686 34.5214 96.3227 36.6636 96.1337C36.5483 96.8635 35.4799 96.958 36.2341 98.8796C34.0919 99.0686 34.7937 101.347 32.1487 102.481C32.0335 103.211 27.6181 108.094 27.4453 109.191C26.1987 109.302 27.6181 108.094 26.1987 109.302C26.9634 111.769 22.6528 113.098 21.8043 115.213C22.5743 113.155 26.4187 109.275 28.8647 105.894C28.8385 104.119 32.3163 101.431 32.552 99.9244L33.9767 99.7984ZM21.731 115.413C21.731 115.413 21.731 115.402 21.731 115.397C21.731 115.397 21.731 115.408 21.731 115.413ZM85.9708 38.8104C86.2275 37.1618 87.3012 37.0726 87.4426 36.1537C88.1916 36.9885 86.1122 37.8916 85.9708 38.8104ZM97.148 41.6141C98.7507 40.3908 100.977 39.6557 103.349 38.0071C101.961 40.1125 98.7507 40.3908 97.148 41.6141ZM104.858 21.647C105.926 21.5525 107.178 21.4423 108.068 21.3635C111.478 19.8042 115.008 17.5098 119.382 16.5857C119.497 15.8559 119.382 16.5857 120.45 16.4912C127.484 13.173 134.168 10.9626 142.909 9.11447C131.083 17.1842 117.486 23.0646 104.58 30.1421C103.868 30.2051 103.454 30.6024 103.339 31.3339C100.013 32.3472 96.3676 35.3714 92.2612 35.7285L92.1198 36.642C90.8733 36.7523 90.758 37.4821 89.3282 37.6081C89.4434 36.8783 90.8733 36.7523 89.4434 36.8783C88.1916 36.9885 89.1868 38.5269 87.0446 38.7107C86.5732 36.9728 89.3648 36.201 91.198 34.9357C90.8157 35.0722 90.3286 35.1772 89.7 35.2297C91.4442 33.098 93.7016 32.1792 95.0896 30.0686L95.8019 30.0056C95.1734 29.5226 97.3156 29.3335 96.1738 27.6324C98.6721 27.4119 98.9026 25.9523 99.704 25.338C99.8192 24.6082 99.6149 25.8841 98.9916 25.401C99.8192 24.6082 99.9658 23.6947 102.642 23.4584C102.758 22.7269 102.843 22.1773 102.899 21.8098C103.795 21.731 101.652 21.9201 103.098 20.5287C103.994 20.45 104.863 21.6365 104.863 21.6365L104.858 21.647ZM72.3372 43.7877C72.5101 42.6904 71.4468 43.8665 72.3372 43.7877C73.7566 42.5802 74.0761 40.5693 74.9665 40.4905C75.3384 38.1121 79.9475 36.81 80.377 34.0694C84.0224 31.0452 86.1384 26.5351 89.1082 25.5533C88.993 26.2831 87.8354 26.9289 87.605 28.3885C88.9039 26.8344 89.9986 25.4745 91.3918 24.4507C91.5646 23.3534 90.1452 24.561 90.1452 24.561C90.3181 23.4637 90.4019 22.9124 89.4277 23.5424C89.5167 22.9964 90.4071 22.9176 91.858 21.5263C94.9377 18.7331 96.2576 15.9137 98.3003 14.1128C98.1588 15.0264 99.4683 15.6301 99.154 17.641C100.228 17.5465 100.369 16.633 101.081 16.57C100.82 18.2133 100.107 18.2763 100.023 18.8276C100.023 18.8276 100.825 18.2133 100.94 17.4835C102.365 17.3575 102.255 18.0926 103.501 17.9823C101.851 20.6495 96.9228 22.8861 96.488 25.6268L96.6033 24.897C93.3821 28.6037 90.1295 32.4995 86.3741 36.2483C84.3314 38.0491 83.7605 41.7034 79.12 42.1129C79.2038 41.5668 80.0104 42.0341 81.9326 39.8815C81.9326 39.8815 80.3246 40.0232 80.4399 39.2934C80.3246 40.0232 78.0463 42.2074 78.9471 43.2102C77.3968 42.3071 77.753 43.73 76.1974 43.982C76.5116 43.9243 77.0983 43.772 77.1611 43.3677C74.4009 44.15 71.8239 47.0797 68.7913 47.3475C69.6817 47.2687 72.2534 44.339 72.3425 43.793L72.3372 43.7877Z" fill="white" style="mix-blend-mode:difference"/>
<path d="M30.4308 103.358C30.0641 104.14 29.5142 105.002 28.8647 105.899C28.8647 105.92 28.8647 105.936 28.8647 105.957C29.3413 105.122 31.2478 103.29 30.4308 103.358Z" fill="white" style="mix-blend-mode:difference"/>
<path d="M86.6674 34.4264C87.8826 33.4183 88.3121 30.6724 90.5381 29.9373C89.2915 30.0476 88.1654 31.5859 87.0969 31.6804L87.2383 30.7669C86.526 30.8299 86.9241 32.7778 86.2065 32.8408C85.9499 34.4841 83.022 37.4453 82.3045 37.5083C82.1892 38.2381 80.4399 39.2934 80.4399 39.2934L82.0478 39.1517C83.022 37.4401 86.4894 35.5132 86.6622 34.4211L86.6674 34.4264Z" fill="white" style="mix-blend-mode:difference"/>
<path d="M32.9867 97.1837C33.102 96.454 35.9146 94.2226 34.8461 94.3171C34.7047 95.2306 33.102 96.454 32.9867 97.1837Z" fill="white" style="mix-blend-mode:difference"/>
<path d="M31.6197 102.534C31.5045 103.264 32.1539 102.487 32.1539 102.487L32.2954 101.573C31.7611 101.62 31.6145 102.534 31.6145 102.534H31.6197Z" fill="white" style="mix-blend-mode:difference"/>
<path d="M28.9537 106.356C28.8961 106.23 28.8699 106.094 28.8647 105.952C28.7128 106.214 28.7023 106.377 28.9537 106.356Z" fill="white" style="mix-blend-mode:difference"/>
<path d="M92.7012 32.9983C92.5755 33.8068 91.9732 34.4211 91.2032 34.9462C92.4603 34.4999 92.5912 33.6966 92.7012 32.9983Z" fill="white" style="mix-blend-mode:difference"/>
<path d="M87.2069 91.6919H87.1598C87.1598 91.6919 87.1964 91.6919 87.2069 91.6919Z" fill="white" style="mix-blend-mode:difference"/>
<path d="M87.2174 91.6919C87.2174 91.6919 87.2174 91.6919 87.2069 91.6919H87.2174Z" fill="white" style="mix-blend-mode:difference"/>
<path d="M87.1598 91.6971H87.0865C87.1179 91.6971 87.1441 91.6971 87.1598 91.6971Z" fill="white" style="mix-blend-mode:difference"/>
<path d="M98.3893 65.2827C98.3893 65.2827 98.3788 65.2827 98.3736 65.2827C98.3736 65.2827 98.3841 65.2827 98.3893 65.2827Z" fill="white" style="mix-blend-mode:difference"/>
<path d="M87.8878 91.1826C88.134 90.5578 88.223 90.2901 88.2073 90.2428C88.0764 90.4318 87.9821 90.5736 87.9821 90.5736C87.8878 91.1826 86.6989 92.1907 87.8878 91.1826Z" fill="white" style="mix-blend-mode:difference"/>
<path d="M98.4155 65.2774C98.4155 65.2774 98.405 65.2774 98.3893 65.2774C98.3998 65.2774 98.405 65.2774 98.4155 65.2774Z" fill="white" style="mix-blend-mode:difference"/>
<path d="M98.3736 65.2827C98.3736 65.2827 98.3474 65.2827 98.3317 65.2827C98.3422 65.2827 98.3579 65.2827 98.3736 65.2827Z" fill="white" style="mix-blend-mode:difference"/>
<path d="M87.0865 91.7024C87.0184 91.7076 86.9241 91.7181 86.7722 91.7286L87.0865 91.7024Z" fill="white" style="mix-blend-mode:difference"/>
<path d="M86.6989 92.1854C86.7146 92.0962 86.5784 92.2064 86.3689 92.4322C86.6203 92.1959 86.8455 92.0594 86.7565 92.4479C86.9293 92.1697 87.1493 92.1487 87.1493 92.1487C86.7722 91.7286 85.9551 92.2537 86.0284 91.7969L85.9551 92.2537C85.9551 92.2537 86.7722 91.7286 86.6989 92.1907V92.1854Z" fill="white" style="mix-blend-mode:difference"/>
<path d="M62.9094 97.735L62.3909 98.2338C62.8361 98.1971 62.9094 97.735 62.9094 97.735Z" fill="white" style="mix-blend-mode:difference"/>
<path d="M85.8347 93.015C85.8347 93.015 85.8347 93.0255 85.8347 93.036C86.0337 92.7997 86.217 92.5897 86.3689 92.4322C86.1122 92.6737 85.8347 93.015 85.8347 93.015Z" fill="white" style="mix-blend-mode:difference"/>
<path d="M98.3369 65.2879C98.3369 65.2879 98.295 65.2879 98.2793 65.2879C98.3003 65.2879 98.3212 65.2879 98.3369 65.2879Z" fill="white" style="mix-blend-mode:difference"/>
<path d="M86.4998 93.3457C86.4998 93.3457 86.5103 93.3825 86.5051 93.4088C86.5051 93.3773 86.5051 93.3562 86.4998 93.3457Z" fill="white" style="mix-blend-mode:difference"/>
<path d="M84.6981 94.6216C85.1171 94.5848 86.3898 93.162 86.4998 93.3457C86.4736 93.0307 85.8032 93.4245 85.8347 93.0412C84.8866 94.1596 83.6401 95.8134 84.6981 94.6216Z" fill="white" style="mix-blend-mode:difference"/>
<path d="M86.7512 92.4479C86.6779 92.5635 86.6151 92.721 86.5784 92.952C86.6727 92.7315 86.7251 92.5687 86.7512 92.4479Z" fill="white" style="mix-blend-mode:difference"/>
<path d="M86.8403 91.2719L86.0232 91.7969C86.0232 91.7969 86.767 91.7286 86.8403 91.2719Z" fill="white" style="mix-blend-mode:difference"/>
<path d="M98.2741 65.2932C98.2741 65.2932 98.2426 65.2932 98.2269 65.2932C98.2426 65.2932 98.2531 65.2932 98.2741 65.2932Z" fill="white" style="mix-blend-mode:difference"/>
<path d="M98.2322 65.2984C98.2322 65.2984 98.2217 65.2984 98.2165 65.2984C98.2217 65.2984 98.2269 65.2984 98.2322 65.2984Z" fill="white" style="mix-blend-mode:difference"/>
<path d="M76.7211 80.8762L77.8315 79.4271C77.9048 78.9703 76.7211 80.8762 76.7211 80.8762Z" fill="white" style="mix-blend-mode:difference"/>
<path d="M99.4578 78.2773L99.903 78.2405C100.621 77.4267 100.689 76.9699 101.212 76.4711C101.872 75.0588 102.621 74.9958 102.763 74.077C103.06 74.049 103.241 73.832 103.307 73.4259C104.423 72.8799 109.017 67.9603 109.724 66.2435C111.08 64.1696 112.463 62.8412 111.714 62.9095C111.342 62.4895 111.059 61.4604 109.017 60.4366L108.666 59.8643C108.666 59.8643 108.739 59.4075 109.184 59.3655C109.556 59.7855 110.52 58.3417 110.965 58.305C111.682 57.4911 114.155 55.769 114.228 55.3123C114.348 54.551 113.081 54.2097 113.175 53.6006C112.919 52.4193 113.437 51.9205 112.992 51.9625C113.065 51.5058 112.615 51.5425 112.714 50.9335C111.813 50.1092 112.028 48.7388 110.174 50.2509C107.869 50.9072 104.502 52.7081 102.071 54.1204C90.4124 61.0141 75.4222 72.2551 65.4916 81.2542C63.6113 82.9238 61.8357 84.8874 60.3797 86.6673C59.7145 87.1766 59.6412 87.6386 59.6412 87.6386C59.0964 88.2897 58.4574 89.5498 57.9389 90.0433C57.8446 90.6523 56.8809 92.0909 57.5094 92.7892C57.8865 93.2092 58.6827 93.7395 59.2064 94.1438C59.1331 94.6006 59.0126 95.3671 59.0126 95.3671C58.9393 95.8239 59.0126 95.3671 59.7564 95.3041C60.2016 95.2674 59.6831 95.7609 60.1335 95.7189L60.2068 95.2621C60.5839 95.6822 60.1335 95.7189 60.0392 96.3279C60.0392 96.3279 61.0815 96.2334 60.4844 96.2859C61.0815 96.2334 60.4111 96.7427 60.8877 97.4568C61.3329 97.42 62.6476 96.5485 62.5271 97.315C62.5271 97.315 62.4538 97.7718 62.9042 97.7298C63.5013 97.6773 62.8309 98.1866 62.8309 98.1866L63.8732 98.0973C63.8732 98.0973 66.2249 96.2387 66.8167 96.1862L66.8901 95.7294L67.6338 95.6664C67.6338 95.6664 67.7281 95.0574 67.8014 94.6006C67.7281 95.0574 68.8123 93.7605 68.8856 93.3038C69.4094 92.8995 69.8546 92.4217 70.0222 92.2274C70.1741 92.3324 70.9021 92.4059 71.363 91.5816C71.363 91.5816 70.9178 91.6184 71.4835 90.8203L71.363 91.5816C71.8082 91.5449 73.0443 90.227 73.5628 89.7335C73.5628 89.7335 73.7304 88.6677 74.4742 88.5994C74.9194 88.5627 74.3799 89.2085 74.9194 88.5627C74.9927 88.1059 76.035 88.0114 76.035 88.0114L76.1555 87.2501L76.6007 87.2081L76.674 86.7513C77.5173 86.074 77.4177 86.6883 78.0148 86.6358C78.0515 86.389 78.0882 86.1738 78.1353 85.9953C78.4757 85.5437 78.4967 85.528 79.1462 85.0345C78.4758 85.5437 79.2666 84.2732 79.2666 84.2732L79.8166 85.4282C79.8899 84.9715 79.1462 85.0345 80.0104 84.2102L80.7018 83.5486C81.5974 83.4699 82.184 82.5143 82.933 82.4513C83.4987 81.648 83.9439 81.6112 83.9439 81.6112C84.6143 81.1019 85.578 80.5664 85.578 80.5664C86.3951 80.0414 85.8661 78.734 87.0865 79.3798C87.5317 79.3431 88.0973 78.5398 88.9144 78.0147C90.03 77.4635 91.8841 75.9461 92.8007 75.7203L93.5183 74.9065L94.8067 74.1925C94.8067 74.1925 93.3978 75.6731 94.1416 75.6048C94.1416 75.6048 95.3253 73.6937 95.252 74.1505C95.252 74.1505 94.8958 76.4396 94.4454 76.4764C92.895 78.8706 91.7637 80.4772 90.0876 82.7296C88.9772 84.1787 87.7935 85.1867 86.8769 86.3208C86.3113 87.1241 86.238 87.5809 86.1437 88.1899C85.5518 89.1455 84.0224 90.4843 83.7029 91.5606C81.4822 94.4641 79.8637 97.315 78.3867 100.15L78.0201 100.633C77.732 102.466 78.3186 100.607 78.9105 100.554C78.9105 100.554 79.5285 99.4466 79.5966 98.9899L80.3404 98.9269C80.3823 98.6538 80.2985 98.5856 80.1728 98.6119L80.8484 98.1656C80.4503 99.0686 79.7956 100.14 80.7175 99.3469C80.9113 98.1288 81.3565 98.0868 82.095 97.1207C82.1892 96.5117 83.0796 95.5299 83.0796 95.5299C83.2001 94.7686 83.3468 94.7528 84.0957 94.6898C84.1691 94.2331 83.4253 94.2961 84.1691 94.2331C84.1691 94.2331 85.6409 91.3979 86.0913 91.3559L87.0026 90.2218C87.4478 90.185 86.9293 90.6786 86.835 91.2876C86.835 91.2876 87.2802 91.2509 87.2122 91.7076C87.7202 90.9621 88.1706 90.1535 88.2021 90.2533C88.532 89.7703 89.1134 88.9565 89.061 89.2872C89.1344 88.8305 89.061 89.2872 89.8048 89.2242C89.8415 88.9932 89.8572 88.8777 89.8781 88.7622C89.8781 88.7622 89.9514 88.3054 90.5485 88.2529C90.6219 87.7961 91.6118 87.1083 91.6118 87.1083C91.6851 86.6516 91.8056 85.885 91.8056 85.885L92.5493 85.822C92.5493 85.822 93.2355 84.2574 93.6859 84.2207L93.7592 83.7639L94.922 82.4093C94.9325 82.53 95.0896 82.6088 95.76 82.236C96.3519 81.2805 95.76 82.236 96.2052 82.1993C96.2052 82.1993 96.2523 81.8948 96.3466 81.2857C96.6434 81.2612 96.832 80.9934 96.9123 80.4824L97.5094 80.4299C98.0279 79.9364 97.5827 79.9731 97.5827 79.9731L98.0279 79.9364C98.1012 79.4796 98.6198 78.9808 99.4578 78.3035V78.2773ZM80.9427 97.9503C81.0055 97.5513 81.0632 97.1943 81.0632 97.1943C81.1627 97.3098 81.0841 97.6038 80.9427 97.9503ZM89.92 88.5049C89.9305 88.4419 89.941 88.3737 89.9567 88.2897C89.941 88.3789 89.9305 88.4472 89.92 88.5049ZM79.6752 76.0984C79.9371 75.6748 80.0924 75.3108 80.1413 75.0063C80.7384 74.9538 81.4822 74.8908 81.5555 74.434C81.4822 74.8908 82.7392 72.5229 83.1634 73.5415C83.1634 73.5415 82.4459 74.3553 82.1473 74.3815C81.4769 74.8908 79.5547 76.8649 78.9314 77.0697L78.9524 76.9174C78.1824 77.1327 78.0672 77.894 78.0672 77.894L77.7372 77.1694C77.7634 77.0172 78.9524 76.9122 79.6699 76.0984H79.6752ZM70.9283 84.0894C70.3312 84.1419 70.2841 84.4464 69.9855 84.4727C69.3884 84.5252 70.3312 84.1419 70.3312 84.1419C71.0226 83.4803 71.5882 82.6771 71.5882 82.6771L72.9238 81.6585C74.0395 81.1072 72.9972 81.2017 73.4424 81.1597C74.0395 81.1072 75.1498 79.6581 75.1498 79.6581C75.2232 79.2013 75.9669 79.1331 75.9669 79.1331L76.4854 78.6343C76.8835 78.5993 76.8591 78.7515 76.4121 79.0911C75.0294 80.4142 72.332 82.6088 70.9283 84.0841V84.0894ZM78.1405 85.9848C78.2086 85.7223 78.3081 85.549 78.4862 85.5332L78.1405 85.9848ZM95.4196 67.4983C90.47 70.9425 83.991 75.7203 78.57 79.3588C77.8263 79.4218 76.7159 80.8762 76.7159 80.8762L76.1188 80.9287C76.1188 80.9287 73.699 83.2493 73.1019 83.3018L73.2224 82.5405C73.6204 82.5055 73.9923 82.3235 74.338 81.9945C74.7832 81.9578 75.7679 80.3617 76.2183 80.3249C76.9306 79.5111 75.8884 79.6004 76.2183 80.3249C76.2183 80.3249 77.3811 79.4743 77.4544 79.0123C77.9729 78.5135 77.9048 78.9756 77.9729 78.5135C78.7167 78.4505 78.0724 77.9045 78.8162 77.8362C79.5285 77.0224 78.7219 78.4453 78.7219 78.4453C79.319 78.3928 79.4133 77.7837 79.8323 76.9962C81.1941 76.7284 81.3146 75.9619 82.0059 75.3003L81.9116 75.9094C82.2102 75.8831 82.9749 74.7648 83.4934 74.266C84.2372 74.203 84.6824 74.161 84.8028 73.3997C85.248 73.3629 85.3214 72.9009 85.3214 72.9009C86.0127 72.2394 86.8036 71.8666 86.9555 71.8561C88.2964 71.7406 87.914 70.4175 88.3906 71.1315C88.3906 71.1315 88.9563 70.3282 88.5111 70.3702L88.9563 70.3335C89.4067 70.2915 90.8366 68.6639 91.9994 67.8081C92.4446 67.7713 93.1883 67.7031 93.1883 67.7031C93.2616 67.2463 93.8587 67.1938 93.8587 67.1938L94.1573 67.1675L94.2306 66.7108L94.8277 66.6582C94.2306 66.7108 94.3249 66.1017 94.922 66.0492C95.6657 65.9862 94.8277 66.6582 94.8277 66.6582C95.5714 66.5952 94.922 66.0492 95.671 65.981C95.7443 65.5242 95.671 65.981 96.1162 65.9442C96.5614 65.9022 96.6347 65.4507 97.3522 64.6316L97.2318 65.3929C97.2318 65.3929 99.5835 63.529 99.0597 64.0278C97.677 65.3562 99.5049 63.9911 99.5049 63.9911C100.175 63.4818 99.5782 63.5343 99.5782 63.5343L100.175 63.4818C101.165 62.794 99.6725 62.9253 100.27 62.8727L100.715 62.8307C100.621 63.4398 98.4207 65.2879 98.8659 65.2512C98.4207 65.2879 98.536 64.5266 98.4207 65.2879C98.3474 65.7447 96.0166 66.5532 95.4248 67.5088L95.4196 67.4983ZM73.2381 82.4408C73.2381 82.4408 73.2381 82.4723 73.2329 82.4828C73.2329 82.467 73.2329 82.4513 73.2381 82.4408ZM80.0785 76.9069C80.0785 76.9069 80.0418 76.9174 80.0104 76.9279C80.0418 76.9174 80.0628 76.9122 80.0785 76.9069ZM79.9475 76.9489C79.9475 76.9489 79.8952 76.9647 79.8637 76.9752C79.8847 76.9699 79.9161 76.9594 79.9475 76.9489Z" fill="white" style="mix-blend-mode:difference"/>
<path d="M98.2165 65.2984C98.2165 65.2984 98.1798 65.2984 98.1641 65.2984C98.1798 65.2984 98.1955 65.2984 98.2165 65.2984Z" fill="white" style="mix-blend-mode:difference"/>
<path d="M98.1222 65.3037C98.1222 65.3037 98.1012 65.3037 98.096 65.3037C98.1012 65.3037 98.1117 65.3037 98.1222 65.3037Z" fill="white" style="mix-blend-mode:difference"/>
<path d="M98.1641 65.3037C98.1641 65.3037 98.1327 65.3037 98.1222 65.3037C98.1327 65.3037 98.1484 65.3037 98.1641 65.3037Z" fill="white" style="mix-blend-mode:difference"/>
<path d="M134.801 51.9258C134.33 52.12 132.308 46.2764 131.716 46.3289C130.8 46.5599 130.365 49.3059 130.528 51.0962C122.315 61.2976 112.489 71.4886 106.272 83.0183C105.675 83.0708 104.737 83.4541 104.79 84.0526C107.435 85.927 107.44 91.4924 109.32 94.4903C111.478 93.8498 112.096 93.645 113.961 93.0307C113.778 91.3926 114.464 89.828 115.92 88.0429C116.58 86.6306 117.245 85.2182 117.784 84.5672C121.624 77.9097 125.285 71.4203 130.564 64.9361C131.512 61.6914 135.048 58.8247 138.264 56.1366C138.683 55.349 139.374 54.6822 140.71 53.6636C143.8 50.8337 146.539 48.3345 150.923 45.6936C158.743 40.795 168.485 36.7838 176.226 36.1012C176.226 36.1012 176.97 36.0382 177.467 35.6917C178.735 36.0277 180.154 36.3585 182.312 35.718C183.213 36.5423 183.836 37.2406 185.182 38.0229C185.863 39.3197 185.989 40.3593 187.356 40.0915C184.46 28.609 167.752 31.1292 154.181 38.0334C146.974 41.8241 140.521 47.358 134.812 51.9205L134.801 51.9258Z" fill="white" style="mix-blend-mode:difference"/>
<path d="M73.6362 97.126C72.1277 98.3126 70.0746 100.145 68.4456 102.093C69.1894 102.03 69.907 101.211 69.907 101.211C70.4028 101.169 70.8323 100.931 71.1954 100.497L71.7925 100.444C71.7925 100.444 71.8658 99.9874 71.9863 99.2261L72.8819 99.1474C72.8819 99.1474 73.0234 98.2338 73.4738 98.1918C73.5471 97.735 74.3851 97.0577 73.6414 97.126H73.6362Z" fill="white" style="mix-blend-mode:difference"/>
<path d="M74.4061 144.61L74.5004 144.001L74.6208 143.24L75.286 142.73L75.5217 141.208C76.3388 140.683 76.4593 139.922 76.4593 139.922C77.1506 139.26 77.2711 138.493 77.2711 138.493C77.7896 137.995 77.9363 137.081 77.9363 137.081C78.7743 136.404 78.0305 136.472 78.0305 136.472L78.7743 136.409L78.8476 135.952C78.9681 135.191 79.9528 134.503 79.9528 134.503C79.9982 134.199 80.0628 133.791 80.1466 133.28L80.597 133.243C80.8117 131.873 81.5031 131.206 82.4668 129.767C82.4668 129.767 82.5402 129.311 83.1268 128.355L83.2001 127.898L83.3206 127.137C83.9177 127.084 83.3206 127.137 83.4149 126.528L84.0119 126.475L84.1324 125.714L84.9757 125.042L85.049 124.585C85.7264 124.025 86.0965 123.54 86.1594 123.131C86.6779 122.637 86.2327 122.674 86.2327 122.674C86.8193 121.719 86.6779 122.637 86.8193 121.719C86.4946 120.994 85.6723 120.616 85.0228 120.07L84.5462 119.361L84.101 119.398L84.1953 118.789C83.4463 118.857 82.8544 118.904 82.8544 118.904C82.4092 118.941 81.5136 119.02 80.7698 119.088C79.7276 119.177 78.8843 119.855 78.2924 119.907C77.9921 119.932 77.505 120.226 76.8311 120.789L76.7368 121.398L75.9879 121.461L75.5427 121.498C75.4693 121.955 74.5737 122.034 74.0133 122.837L73.4214 123.793L72.5258 123.871C72.4769 124.176 72.304 124.34 72.0072 124.365L71.913 124.974C71.0226 125.053 69.7865 126.365 69.7865 126.365C69.6922 126.974 68.9485 127.037 68.9485 127.037C68.828 127.799 68.3828 127.841 68.3828 127.841C67.4872 127.919 67.3929 128.528 67.3929 128.528C66.7958 128.581 66.6753 129.342 66.6753 129.342C66.8901 127.967 66.5653 127.242 65.8163 127.31L65.3188 126.754L64.5698 126.822L64.1979 126.402C63.3023 126.481 63.4227 125.719 63.4227 125.719C62.8256 125.772 62.3752 125.809 61.6367 125.877L61.0396 125.929C60.5438 125.971 60.0968 126.01 59.6988 126.045L59.5783 126.811L58.8346 126.874C58.1641 127.384 56.9752 127.489 55.9853 128.177C53.9845 129.71 52.0047 131.085 50.8157 132.093C49.852 132.629 49.1082 132.697 48.5635 133.343L47.1022 134.225L46.5575 134.876L45.5414 135.721L45.0962 135.758C45.0019 136.367 44.1063 136.446 44.1063 136.446C42.9435 137.302 42.1264 137.821 41.587 138.472C39.979 139.365 39.4552 139.864 38.6172 140.536L37.8787 141.502C36.6164 142.064 35.506 143.518 34.4952 144.358C32.8348 145.555 31.9497 146.537 30.8341 147.088L30.9074 146.632C30.9074 146.632 31.5045 146.579 31.6459 145.665C32.1906 145.014 33.0077 144.495 33.1229 143.728L33.72 143.676C33.7829 143.27 34.153 142.785 34.8304 142.221C35.1289 142.195 35.2023 141.738 35.9408 140.772C35.9408 140.772 36.0351 140.163 36.9307 140.084C37.4492 139.586 38.4077 138.147 39.9371 136.808C39.9371 136.808 40.0314 136.199 40.4818 136.157C40.6023 135.396 41.4979 135.317 42.1893 134.65C42.755 133.847 42.8492 133.238 43.6663 132.718C44.1587 132.074 44.555 131.738 44.8553 131.71C44.9041 131.406 44.9687 130.999 45.0491 130.492C45.6461 130.439 45.9761 130.21 46.039 129.804L46.4894 129.767C47.1633 129.207 47.5334 128.724 47.5998 128.318C48.1183 127.82 48.9825 126.99 48.9825 126.99L49.6739 126.328C49.7228 126.024 49.8956 125.859 50.1924 125.835L50.3338 124.916C51.0776 124.853 51.1981 124.087 52.0937 124.013L52.167 123.556C52.167 123.556 52.7117 122.905 53.3036 122.853L53.4241 122.091C53.4241 122.091 53.5183 121.482 54.2621 121.414L54.3302 120.957C55.0687 119.991 55.5191 119.954 55.6396 119.188C56.1843 118.838 56.6871 118.444 57.148 118.007L57.2685 117.24C57.6281 116.806 58.1467 116.309 58.8241 115.749L58.9184 115.14L59.7826 114.316L59.8559 113.859C60.3011 113.822 60.9977 113.155 60.9977 113.155C61.5913 112.501 61.9108 112.021 61.9562 111.717L62.6685 110.898L62.7628 110.289C62.8309 109.832 63.5799 109.764 63.5799 109.764C63.7003 108.997 64.4388 108.031 64.5122 107.574C65.0534 107.224 65.3729 106.745 65.4707 106.136C66.0154 105.485 66.6806 104.975 66.801 104.214C66.2982 103.657 66.2039 104.266 66.2039 104.266L65.7587 104.303L65.6383 105.065C64.8945 105.128 64.8212 105.584 64.1298 106.251C63.3861 106.319 63.2394 107.233 63.2394 107.233C62.8448 107.268 62.6231 107.438 62.5742 107.742C61.8305 107.81 61.1601 108.32 61.1601 108.32C61.0187 109.233 60.5682 109.275 60.5682 109.275C60.4477 110.042 59.704 110.105 59.704 110.105C59.704 110.105 59.6307 110.562 58.735 110.64C55.472 113.633 51.5437 117.14 48.8097 120.543C46.2589 122.721 45.0071 124.186 42.8859 126.481C40.4399 128.954 38.3396 131.09 35.2494 133.92C35.1551 134.529 34.558 134.582 34.4376 135.349C33.6938 135.412 33.5995 136.026 33.5995 136.026C33.5995 136.026 33.4791 136.787 33.0339 136.829C33.0339 136.829 32.9396 137.438 32.3425 137.491L32.222 138.252L31.3264 138.331C31.2531 138.787 30.8079 138.829 30.7084 139.439C30.7084 139.439 30.5879 140.2 29.8441 140.263L29.179 140.772C29.179 140.772 29.0847 141.381 28.3357 141.449L28.1943 142.363L27.5291 142.872L26.6649 143.702L26.1202 144.353C25.9997 145.114 25.4026 145.167 25.3345 145.623L24.4389 145.702C24.3446 146.311 23.7528 147.267 23.2342 147.766C22.2234 148.606 22.1238 149.22 21.5582 150.018C21.4849 150.475 21.0397 150.512 20.8982 151.43L20.0026 151.509C19.9083 152.118 19.1593 152.181 19.0912 152.643L18.9708 153.404C18.3737 153.457 18.2794 154.066 17.829 154.103C17.7085 154.864 16.7186 155.552 16.1529 156.355C15.3149 157.032 14.524 158.303 14.3826 159.217L13.6388 159.285C12.9684 159.794 12.3085 161.206 11.2452 162.351C10.8 162.388 10.6534 163.307 10.6534 163.307C10.5801 163.763 9.83631 163.832 9.83631 163.832C9.17113 164.341 8.08694 166.541 7.99266 167.155L7.87219 167.922L7.77791 168.531C7.6976 169.038 7.62602 169.497 7.56317 169.906C8.19169 170.605 8.11836 171.061 8.71022 171.009C8.61594 171.618 9.35969 171.555 9.35969 171.555C9.66347 172.432 10.5591 172.353 10.5591 172.353L11.0043 172.311L11.6014 172.258C11.5281 172.72 12.3451 172.195 12.3451 172.195C13.686 172.08 15.2625 170.437 16.3781 169.885C17.2424 169.061 18.2323 168.368 18.7979 167.565L19.3427 166.914L20.2331 166.835C20.2331 166.835 20.3535 166.068 20.7987 166.032L20.893 165.422C21.3382 165.38 22.3072 164.845 23.0247 164.031C23.0247 164.031 23.4699 163.994 23.6166 163.076L23.6899 162.619L24.4337 162.556L25.1041 162.047C25.9892 161.065 26.6806 160.403 27.4296 160.34C28.9642 159.001 30.1741 157.841 31.6564 156.807C32.3338 156.247 32.7947 155.806 33.0391 155.484C33.0391 155.484 33.6362 155.431 33.7305 154.822L34.7466 153.982L35.1918 153.945C36.0351 153.268 36.7474 152.454 36.7474 152.454L37.4964 152.391C37.5906 151.782 38.0411 151.74 38.1615 150.979C39.1253 150.443 39.7224 150.391 40.2618 149.74C41.1522 148.758 41.7493 148.705 42.2679 148.212L43.284 147.372C44.7243 146.642 45.29 145.844 46.6989 145.266L46.0337 145.776L45.9133 146.537C45.8469 146.947 45.7753 147.405 45.6985 147.913C44.9548 147.981 44.8867 148.432 44.8867 148.432C44.1953 149.997 43.0168 151.908 42.3569 153.32C42.2364 154.082 42.1422 154.691 42.0688 155.153C40.9113 156.912 40.2933 158.014 40.5499 159.196C40.5499 159.196 40.4556 159.805 41.3513 159.726C41.2046 160.639 41.1365 161.101 41.0632 161.558L41.5136 161.521L41.367 162.44C42.5193 163.543 43.263 163.475 43.8549 163.422C44.3053 163.385 44.2058 163.994 44.9495 163.926L45.8452 163.847L45.9395 163.238L46.3847 163.202C46.3847 163.202 47.0551 162.692 46.458 162.745L47.1703 161.931C47.317 161.017 48.0607 160.949 48.134 160.492C48.134 160.492 48.8044 159.983 48.9459 159.064L49.3911 159.028C49.4853 158.419 50.2291 158.35 50.3024 157.893C50.8995 157.841 50.4229 157.132 51.02 157.08C51.1195 156.471 51.5647 156.429 52.5284 155.893C53.4188 154.911 54.0526 153.651 54.7439 152.99C55.7024 151.551 57.1637 150.669 57.9756 149.246C60.0706 147.104 62.4485 145.093 64.6641 142.19C66.8901 140.189 69.0113 137.895 71.5359 135.868C72.0806 135.217 72.5939 134.724 73.61 133.878L74.0604 133.842L74.1547 133.233C75.0189 132.403 76.454 131.679 77.1716 130.859C77.2344 130.453 77.5382 130.077 78.0829 129.731L78.68 129.678C78.7778 129.069 78.9995 128.598 79.3452 128.266L80.2094 127.436C76.6216 134.372 72.861 141.47 69.6713 147.771L69.6032 148.228C68.4928 149.677 67.7124 151.856 66.6491 153L66.5287 153.761C64.9836 157.059 63.1451 161.28 61.0553 165.228C60.8668 166.446 60.322 167.097 60.5525 168.431C60.7672 167.055 61.4639 166.394 62.4276 165.858C62.5079 165.351 62.5795 164.894 62.6423 164.488L63.208 163.685C64.266 161.637 64.4546 160.419 65.2664 158.991C65.2664 158.991 65.7849 158.492 65.9316 157.578L66.0258 156.969L66.9215 156.891L66.9896 156.434C67.11 155.673 67.5552 155.631 67.6548 155.022C67.6548 155.022 67.7229 154.565 68.6237 154.486C68.7704 153.567 68.8856 152.806 69.336 152.769C69.4041 152.312 69.9489 151.661 70.0693 150.9L70.1636 150.291C70.8375 149.731 71.2076 149.248 71.274 148.842C71.913 147.582 72.751 146.905 72.971 145.534L73.9818 144.694C74.0814 144.08 74.4323 144.652 74.4323 144.652L74.4061 144.61ZM46.4737 145.256C46.4213 145.256 46.4108 145.261 46.4737 145.256Z" fill="white" style="mix-blend-mode:difference"/>
<path d="M108.456 139.565C108.456 139.565 108.446 139.58 108.44 139.596C108.446 139.586 108.451 139.575 108.456 139.565Z" fill="white" style="mix-blend-mode:difference"/>
<path d="M108.44 139.591C108.44 139.591 108.419 139.622 108.414 139.633C108.425 139.617 108.435 139.601 108.44 139.591Z" fill="white" style="mix-blend-mode:difference"/>
<path d="M108.414 139.638C108.372 139.712 108.315 139.801 108.299 139.832C108.309 139.817 108.346 139.759 108.414 139.638Z" fill="white" style="mix-blend-mode:difference"/>
<path d="M91.4232 161.065C92.3398 160.834 94.0211 159.484 95.5086 158.45C94.0473 159.332 92.5336 159.616 91.4232 161.065Z" fill="white" style="mix-blend-mode:difference"/>
<path d="M89.6372 161.217C87.7045 162.288 85.9237 163.349 84.7347 164.357C86.0965 164.089 87.7307 163.044 89.6372 161.217Z" fill="white" style="mix-blend-mode:difference"/>
<path d="M108.687 139.092C108.687 139.092 108.687 139.092 108.687 139.087C108.687 139.087 108.687 139.087 108.681 139.087C108.681 139.087 108.681 139.087 108.681 139.092H108.687Z" fill="white" style="mix-blend-mode:difference"/>
<path d="M108.273 144.537C110.205 143.46 112.18 141.187 114.401 139.181L114.327 139.638C116.161 138.493 118.465 135.984 119.968 134.818C119.371 135.317 119.115 135.926 118.701 136.094C119.324 135.889 120.257 134.603 120.88 134.398L120.707 134.561C121.032 135.286 121.964 133.096 123.226 132.534C123.399 132.366 124.19 131.999 124.735 131.348C125.075 130.114 125.374 130.088 126.563 129.08C126.065 128.523 127.029 127.988 127.076 127.683C127.17 127.074 126.353 127.599 126.772 126.806C126.872 126.197 127.076 127.683 127.437 126.297C127.736 126.271 127.532 125.688 127.532 125.688C128.029 125.341 128.569 124.69 128.941 124.207C130.528 119.708 124.908 114.331 125.882 110.934C125.505 110.514 120.419 111.113 117.297 112.289C116.334 112.825 111.599 114.893 109.195 116.159C99.4211 122.28 90.7109 129.064 82.383 140.027C80.4556 142.001 79.1305 144.831 76.8835 146.983C76.8835 146.983 77.0302 146.968 76.8364 147.288C76.6216 148.658 76.0298 149.614 75.2965 151.483L74.757 153.037C73.2171 157.237 75.705 158.219 75.6527 161.385C75.8569 161.968 75.6527 161.385 76.0979 161.343L75.8517 161.968C76.9778 163.223 78.2453 163.564 79.9475 162.057L81.0213 162.713C80.0313 163.401 79.6542 162.981 79.5338 163.748C79.958 163.863 81.1679 162.703 81.3198 163.59C80.9217 163.322 80.4765 163.359 79.958 163.858L80.8484 163.779L80.4818 164.262C80.4818 164.262 80.9322 164.22 81.2517 164.042C81.3774 164.183 82.6397 163.622 83.6296 162.929C85.7561 161.537 87.4897 160.786 89.4224 159.715L89.5481 159.857C93.8064 157.074 98.5621 154.854 102.344 151.362L102.318 151.514C102.344 151.362 102.642 151.336 102.642 151.336C103.433 150.065 104.622 149.96 104.764 149.041C104.465 149.068 104.271 149.388 103.946 149.566C105.502 148.075 107.058 146.584 108.393 145.566C108.687 144.636 109.085 144.904 109.158 144.447C109.525 143.964 108.687 144.642 108.262 144.526L108.273 144.537ZM75.9826 158.35C76.7159 156.481 74.6889 153.499 79.8218 147.934C81.5712 145.224 85.0071 142.967 86.1175 141.512L86.3846 140.735C87.3012 140.504 89.5796 139.103 91.2137 138.052C91.308 137.443 91.8056 137.097 91.8056 137.097C91.8789 136.64 92.1774 136.614 92.8426 136.105L92.4236 135.989C92.0256 135.721 93.2145 135.616 93.2145 135.616C94.3301 135.07 94.4034 134.608 95.2153 134.088C94.4715 134.151 94.3301 135.07 93.8797 135.107C95.0634 133.196 98.9235 131.054 101.6 129.914C101.694 129.305 101.846 129.29 101.846 129.29C104.716 127.835 106.157 127.105 108.508 126.145L109.205 126.386C110.734 125.047 111.656 124.816 112.997 124.701C112.672 124.879 111.73 125.263 111.19 125.914C113.594 124.648 117.166 124.339 120.639 123.729C119.56 125.929 117.701 126.544 116.821 128.429C115.412 129.904 113.411 131.437 112.274 133.038C101.469 141.964 87.2855 154.638 75.9774 158.34L75.9826 158.35ZM116.611 130.712C115.82 131.369 115.076 132.025 114.364 132.676C114.516 132.151 115.888 131.584 116.014 130.765C116.112 130.758 116.311 130.74 116.611 130.712ZM114.055 132.954C113.159 133.779 112.301 134.598 111.431 135.417C111.442 135.401 111.457 135.391 111.473 135.375C111.986 134.881 113.029 133.884 113.573 133.233C113.552 133.348 113.762 133.101 114.055 132.954ZM111.002 135.821C110.158 136.614 109.299 137.407 108.383 138.205C108.744 137.428 110.127 136.561 111.002 135.821ZM100.909 152.102C100.086 151.724 98.7612 153.646 97.9336 153.263C99.374 152.533 100.605 151.226 102.417 150.916L100.909 152.102ZM100.076 149.74C100.259 149.582 100.422 149.346 100.516 148.978C99.573 149.362 99.1069 149.551 98.9078 149.871L99.1016 149.551C100.233 147.944 100.364 148.989 100.511 148.978C100.511 148.978 101.778 148.417 102.836 147.272C103.355 146.773 105.429 144.789 105.879 144.747C106.398 144.248 106.895 143.901 107.587 143.24C107.953 142.757 108.173 142.289 108.545 141.801C108.074 141.995 108.027 142.3 107.707 142.478L108.294 141.523C108.074 141.995 107.278 142.363 107.11 142.531C106.665 142.573 106.686 142.421 106.387 142.447L105.104 144.064C104.24 144.894 103.171 145.14 102.826 145.466C102.354 145.66 100.207 147.204 99.1907 148.044C98.7193 148.233 97.4099 149.104 96.2681 149.808C97.0013 147.939 98.8607 147.325 99.6044 146.353C101.783 145.56 103.046 144.096 104.9 142.578C104.722 141.838 104.083 143.098 103.685 142.835C103.978 142.673 104.549 142.242 105.24 141.89C105.062 142.053 104.936 142.358 104.9 142.583C105.046 142.568 105.544 142.226 106.01 141.129C106.675 140.62 107.471 140.247 108.016 139.601L108.582 138.798C109.126 138.147 109.771 137.79 110.242 137.596C109.818 138.005 109.1 138.441 108.692 139.087C109.132 139.05 109.132 139.05 109.037 139.659C110.001 138.22 111.112 137.669 111.578 136.577L112.149 136.677C113.139 135.984 114.144 134.246 114.888 133.275C115.516 133.973 116.019 131.673 117.412 131.248C118.397 129.657 119.366 130.025 120.618 127.657C120.592 127.809 121.409 127.284 120.691 127.195C122.692 125.667 123.404 123.95 124.693 123.236C124.839 123.22 124.819 123.378 124.771 123.682L126.322 121.288C126.322 121.288 125.96 123.577 125.227 125.446C124.174 127.494 123.085 128.796 122.048 129.788C121.383 130.298 121.356 130.45 121.309 130.754C121.309 130.754 121.503 130.434 121.974 130.245C121.802 130.413 121.309 130.754 121.728 130.87C120.393 131.889 119.686 133.605 118.837 133.38C118.764 133.836 118.051 134.65 118.051 134.65C116.993 136.703 115.532 137.58 114.348 138.588L112.992 139.759C112.573 139.99 112.044 140.546 111.342 141.061C112.122 139.822 113.081 139.292 114.348 138.588L114.568 138.115L114.987 137.328C115.082 136.719 117.088 135.186 115.375 135.79C113.788 136.53 113.741 136.834 112.452 137.548C110.918 137.984 110.394 138.483 110.394 138.483L108.299 141.528L108.817 141.029C108.817 141.029 108.597 141.502 108.55 141.806C108.702 141.796 108.996 141.764 109.147 141.754C110.017 141.827 108.927 142.226 110.017 141.827C110.509 141.355 110.954 141.161 111.253 141.124C110.886 141.386 110.483 141.638 110.017 141.827L109.451 142.625C109.352 142.337 108.535 142.857 108.414 143.618C106.146 145.907 102.904 148.049 100.081 149.74H100.076ZM98.8136 150.48C98.8659 150.144 99.264 150.139 99.6673 149.981C99.3792 150.154 99.0912 150.322 98.8136 150.48Z" fill="white" style="mix-blend-mode:difference"/>
<path d="M108.687 139.092C108.597 139.239 108.514 139.386 108.461 139.554C109.017 139.654 108.702 139.124 108.687 139.092Z" fill="white" style="mix-blend-mode:difference"/>
<path d="M108.461 139.554C108.461 139.554 108.461 139.559 108.456 139.565C108.456 139.559 108.461 139.554 108.461 139.554Z" fill="white" style="mix-blend-mode:difference"/>
<path d="M94.9534 158.335C95.7967 157.935 97.2108 157.106 98.0331 156.423C98.8502 155.898 99.3635 155.405 99.463 154.796C97.6141 156.308 96.5509 156.555 94.9534 158.335Z" fill="white" style="mix-blend-mode:difference"/>
<path d="M93.0521 159.117C92.4131 160.377 93.4973 159.08 94.4663 158.539C94.5815 158.503 94.7439 158.429 94.9377 158.34L95.0529 157.584C94.681 158.067 93.7173 158.602 93.0469 159.117H93.0521Z" fill="white" style="mix-blend-mode:difference"/>
<path d="M122.524 126.738C121.44 128.04 120.922 128.534 120.848 128.99C120.377 129.185 120.634 130.366 120.01 130.565C119.193 131.09 119.068 130.949 119.047 131.101C118.701 131.432 118.481 131.904 118.481 131.904C118.481 131.904 118.23 131.626 117.418 133.049L116.852 133.852C117.522 133.343 117.889 132.86 118.088 132.54C118.858 132.324 118.607 132.041 119.078 131.852C119.576 131.511 119.282 132.44 120.466 131.432C120.607 131.374 120.707 131.306 120.791 131.232C120.875 130.781 121.524 130.277 121.597 129.825C121.199 129.557 120.859 130.791 120.607 130.513C121.199 129.557 122.608 128.985 122.304 128.108C122.257 128.413 121.566 129.074 121.294 128.948C122.849 127.457 123.656 125.131 125.211 123.64C125.065 123.656 124.766 123.677 124.766 123.677L124.028 124.643C124.028 124.643 123.111 125.777 122.524 126.733V126.738Z" fill="white" style="mix-blend-mode:difference"/>
<path d="M120.786 131.253C120.786 131.253 120.796 131.232 120.806 131.222C120.806 131.222 120.796 131.227 120.796 131.232C120.796 131.237 120.796 131.243 120.791 131.248L120.786 131.253Z" fill="white" style="mix-blend-mode:difference"/>
<path d="M94.9377 158.345C94.9377 158.345 94.9482 158.335 94.9534 158.329C94.9534 158.329 94.9429 158.329 94.9429 158.335V158.345H94.9377Z" fill="white" style="mix-blend-mode:difference"/>
<path d="M115.495 135.028C115.495 135.028 115.794 135.002 116.014 134.529C115.564 134.571 115.495 135.028 115.495 135.028Z" fill="white" style="mix-blend-mode:difference"/>
<path d="M120.806 131.222C120.995 131.059 121.089 130.875 121.309 130.754C121 130.928 120.985 130.938 120.806 131.222Z" fill="white" style="mix-blend-mode:difference"/>
<path d="M116.459 134.493L116.852 133.857C116.533 134.036 116.334 134.356 116.014 134.535L116.459 134.498V134.493Z" fill="white" style="mix-blend-mode:difference"/>
<path d="M155.674 139.176C156.559 137.291 157.617 136.147 159.099 134.214C159.099 134.214 159.219 133.453 160.283 132.303C160.424 131.385 161.32 131.306 162.331 130.471L162.498 129.4C163.682 127.489 164.719 126.496 164.86 125.583C166.096 124.27 167.128 122.375 168.118 121.687C170.391 119.382 172.753 115.565 172.167 113.659C172.167 113.659 172.287 112.898 171.397 112.977C171.397 112.977 170.669 111.99 169.627 112.079L169.768 111.165C168.563 108.561 164.405 111.638 162.477 112.709C158.151 115.948 155.061 118.778 152.065 120.994C151.169 121.073 151.028 121.986 151.028 121.986C148.058 124.055 145.345 127.3 142.82 129.326C141.631 130.334 139.536 132.477 138.227 133.343C138.227 133.343 137.63 133.395 137.488 134.314C135.414 136.304 133.036 138.315 130.816 140.315C130.067 140.378 129.904 141.449 128.862 141.539C130.072 140.378 131.104 138.483 132.266 137.627L132.434 136.561C133.445 135.716 134.65 133.658 134.77 132.897C136.132 131.721 136.87 130.754 138.206 129.736L138.347 128.822C138.494 127.909 139.091 127.851 139.091 127.851L139.285 126.633C139.426 125.714 140.762 124.696 141.05 122.868C140.002 122.06 139.547 121.194 138.525 120.233C138.127 120.268 137.532 120.32 136.739 120.39C135.676 121.54 136.572 121.461 136.425 122.375C134.204 125.278 130.899 128.576 128.679 131.479L127.788 132.461C126.578 133.621 126.458 134.382 125.567 134.461C124.363 136.525 123.179 138.436 122.001 140.342C120.985 141.182 119.927 142.326 118.837 143.628C117.559 146.148 114.998 149.377 114.542 152.281C113.112 157.673 115.789 157.437 115.941 162.089C116.836 162.01 117.727 161.931 118.622 161.852C120.576 160.629 121.592 159.789 122.629 158.791L123.818 157.783L124.562 157.72C125.772 156.56 126.636 155.73 128.04 153.352C130.067 151.672 133.335 149.577 135.409 147.592C135.603 146.374 136.195 146.322 136.195 146.322C136.195 146.322 136.341 145.403 137.53 145.303C138.222 144.642 138.913 143.98 139.604 143.319C139.604 143.319 139.751 142.405 140.793 142.31C141.537 142.247 140.888 141.701 141.637 141.638C142.527 141.56 141.83 140.415 142.721 140.336L143.318 140.284C143.318 140.284 142.888 139.271 143.486 139.218C143.486 139.218 144.947 138.336 145.837 138.257C145.949 137.543 146.253 137.165 146.749 137.123L146.869 136.362L147.911 136.273C148.079 135.207 148.975 135.128 149.985 134.283C150.153 133.217 151.043 132.235 152.086 132.141C153.097 131.3 154.16 130.151 154.16 130.151C152.976 132.062 151.939 133.054 150.609 134.976C149.577 136.871 148.519 138.021 148.226 139.848C141.799 149.892 134.87 162.236 131.905 173.634L131.617 175.466C131.47 176.38 131.041 179.126 132.23 179.021C133.413 177.11 133.702 175.283 133.843 174.364L133.984 173.45C134.875 173.371 134.272 171.618 135.163 171.539L136.205 171.45L136.399 170.232C136.493 169.618 137.384 168.641 137.525 167.722C138.609 166.425 138.897 164.593 139.636 163.627C139.636 163.627 139.777 162.713 141.259 161.679C141.259 161.679 142.297 160.687 142.443 159.768C142.611 158.702 143.622 156.959 144.805 155.951C144.973 154.88 145.989 154.04 146.157 152.974L147.241 151.672C147.304 151.266 147.632 150.736 148.226 150.081C149.556 148.159 150.74 146.248 151.97 144.033C153.448 142.095 154.186 141.129 155.668 139.192L155.674 139.176Z" fill="white" style="mix-blend-mode:difference"/>
<path d="M135.372 171.754C135.509 171.597 135.529 171.487 135.163 171.518C135.163 171.518 135.273 171.618 135.372 171.754Z" fill="white" style="mix-blend-mode:difference"/>
<path d="M135.021 172.437C135.702 172.379 135.556 172.006 135.372 171.754C135.116 172.043 134.44 172.484 135.021 172.437Z" fill="white" style="mix-blend-mode:difference"/>
<path d="M195.909 110.136C189.284 112.951 190.064 113.203 184.386 117.466C183.962 117.634 183.438 113.665 182.956 113.659C182.166 113.817 181.5 114.363 181.181 116.29C172.02 126.943 161.477 138.362 153.421 151.929C152.924 152.045 152.054 152.57 151.939 153.257C153.432 154.948 153.285 158.539 153.783 161.495C153.584 162.015 153.437 162.535 153.39 163.034L153.861 161.942C153.903 162.146 153.945 162.341 153.992 162.535C154.809 162.099 155.385 161.789 155.904 161.511C155.904 161.527 155.904 161.542 155.904 161.553C155.914 161.532 155.92 161.516 155.93 161.495C156.271 161.311 156.585 161.133 156.931 160.944L155.705 162.829C156.213 162.173 156.69 161.521 157.119 160.839C157.433 160.666 157.774 160.471 158.188 160.24C158.214 160.067 158.25 159.899 158.287 159.726C158.308 159.731 158.334 159.736 158.36 159.726C158.36 159.726 158.476 158.513 159.733 157.725C159.754 157.484 159.413 157.552 159.099 157.599L158.989 157.767C159.015 157.715 159.036 157.662 159.068 157.605C159.078 157.605 159.088 157.605 159.099 157.605L160.167 155.961C160.057 156.077 159.937 156.192 159.816 156.308C160.178 155.746 160.586 155.163 161.058 154.554C161.561 153.651 162.063 152.759 162.519 152.008C163.341 150.869 164.174 149.719 164.981 148.558L163.074 151.488C163.341 151.283 164.096 150.659 164.153 150.039C164.483 149.435 164.913 148.726 165.368 147.991C166.049 146.994 166.704 145.986 167.317 144.962L168.37 143.418C169.517 143.24 169.532 143.203 169.595 142.484C169.726 141.124 171.224 140.893 171.439 138.619L170.412 140.2C170.423 140.142 170.433 140.074 170.454 140C170.632 139.743 170.816 139.486 170.994 139.229L171.439 138.625C171.439 138.625 171.423 138.63 171.413 138.63C173.691 135.406 176.095 132.24 178.761 129.111C180.327 125.74 182.867 124.617 186.11 121.971C186.639 121.183 187.356 120.543 188.676 119.582C191.834 116.93 187.618 120.217 191.745 118.012C195.684 115.912 199.691 114.237 206.034 113.449C206.034 113.449 206.641 113.476 207.107 113.239C208.04 113.665 209.087 114.09 210.952 113.796C211.481 114.562 211.821 115.187 212.722 115.938C212.979 117.025 212.853 117.854 214 117.744C214.236 108.278 208.265 105.668 195.914 110.115L195.909 110.136ZM168.322 143.424C168.275 143.434 168.218 143.45 168.181 143.455C168.322 143.235 168.977 142.148 169.92 140.777C169.998 140.714 170.082 140.651 170.166 140.588L168.322 143.424Z" fill="white" style="mix-blend-mode:difference"/>
<path d="M133.801 97.2783C133.592 97.5985 133.597 97.5933 133.597 97.5933C133.89 97.6825 133.801 97.2783 133.801 97.2783Z" fill="white" style="mix-blend-mode:difference"/>
<path d="M184.219 43.646C181.417 44.696 177.855 46.3079 175.257 47.4315C164.316 50.7024 137.012 70.0027 131.978 80.6557C130.852 82.4985 130.281 84.3414 130.019 85.8115C129.857 86.1895 129.91 86.5991 129.904 86.6043C129.826 87.1188 129.82 88.1427 129.768 88.4577C129.826 89.0037 129.768 90.0328 130.009 90.8886C130.15 91.4031 130.501 92.1697 130.81 92.7315C130.863 93.1515 130.962 93.8445 130.962 93.8445C131.025 94.2541 130.952 93.8445 131.292 94.023C131.502 94.1281 131.355 94.4378 131.57 94.5428C131.549 94.4011 131.523 94.2646 131.502 94.1228C131.795 94.6478 131.57 94.5428 131.659 95.0994C131.659 95.0994 131.79 95.1624 131.889 95.2044C132.214 95.3409 131.957 95.6244 132.418 96.4435C132.665 96.5485 133.267 96.1074 133.419 96.79C133.419 96.79 133.497 97.1995 133.796 97.2888C134.194 97.4043 133.88 97.693 133.885 97.693C134.115 97.7613 134.356 97.8243 134.602 97.8873C134.571 97.9136 135.818 96.7322 136.352 96.7795C136.352 96.7795 136.352 96.7795 136.278 96.3489C136.483 96.3804 136.692 96.4119 136.907 96.4382C136.907 96.4382 136.818 95.8502 136.755 95.3934C136.807 95.8554 137.441 94.7266 137.399 94.2331C137.797 93.8865 138.112 93.4245 138.227 93.2512C138.4 93.3878 139.143 93.5873 139.437 92.7105C139.437 92.7105 138.976 92.7052 139.39 91.8547C139.405 92.1434 139.421 92.4269 139.437 92.7105C139.882 92.7315 140.94 91.3506 141.448 90.7836C141.448 90.7836 141.427 89.513 142.291 89.4762C142.81 89.4552 142.281 90.2218 142.81 89.4552C142.81 88.8935 144.062 88.82 144.062 88.82C144.072 88.5049 144.083 88.1794 144.088 87.8591C144.088 87.8591 144.088 87.8591 144.638 87.8171C144.648 87.6229 144.653 87.4286 144.659 87.2343C145.622 86.3733 145.596 87.1608 146.345 87.0978C146.366 86.7671 146.387 86.4835 146.429 86.242C146.806 85.6697 146.838 85.6382 147.634 84.9714C146.806 85.6645 147.702 83.9581 147.707 83.9529C147.995 84.4674 148.283 84.9767 148.566 85.486C148.618 84.8717 147.628 84.9767 148.702 83.8426C148.99 83.5381 149.284 83.2283 149.577 82.9186C150.782 82.7821 151.531 81.438 152.568 81.3067C153.306 80.1621 153.935 80.0781 153.935 80.0781C154.841 79.3273 156.187 78.5135 156.187 78.5083C157.318 77.7207 156.527 75.9041 158.277 76.7337C158.905 76.6497 159.686 75.4736 160.822 74.686C162.383 73.8302 164.918 71.5988 166.128 71.2576C167.081 70.092 167.076 70.0972 167.081 70.0972C167.647 69.7559 168.202 69.4147 168.752 69.0839C168.752 69.0734 166.924 71.1578 167.877 71.058C167.882 71.0475 169.417 68.3856 169.312 69.0262C169.323 69.0209 168.794 72.2079 168.228 72.2761C166.175 75.6731 164.609 78.041 162.315 81.3067C160.801 83.4068 159.204 84.8717 157.983 86.452C157.957 86.4941 157.947 86.5256 157.92 86.5623C156.674 87.6806 154.165 90.9621 153.62 90.9096C153.484 91.3874 154.49 90.2218 154.951 90.9621C154.815 91.4399 154.155 91.4136 154.815 91.4399C153.327 91.9807 152.777 91.9492 151.997 92.3744C152.641 92.4112 153.935 92.0174 154.6 92.0279C154.396 92.3114 154.217 92.5845 154.087 92.8522C153.406 93.8655 152.73 94.8579 152.08 95.8292C152.049 95.8764 152.028 95.9132 151.997 95.9552C150.441 98.2758 149.1 100.407 148.247 102.098C148.205 102.145 148.168 102.193 148.126 102.24C148.126 102.287 148.126 102.324 148.126 102.366C147.775 103.08 147.508 103.71 147.351 104.235C148.749 104.965 149.32 105.6 150.232 105.794C150.326 105.653 150.64 105.831 151.033 105.868C151.143 105.726 151.143 105.721 151.551 105.758C151.483 105.217 153.222 104.718 153.914 103.421L153.673 103.405C154.113 103.006 155.621 101.825 156.009 100.969C155.569 100.959 155.354 101.447 155.569 100.959C156.066 100.822 157.203 99.7092 156.758 99.2209C155.878 100.239 154.804 101.468 153.751 102.077C154.039 101.395 154.27 100.806 155.459 99.1894C155.773 98.3651 157.009 97.399 157.329 96.5642C157.559 95.9394 157.721 95.5089 158.214 95.5141C158.958 93.5033 161.058 90.6576 162.257 88.8515C162.299 88.841 162.331 88.8147 162.383 88.8042C162.524 88.2057 163.776 87.2186 163.776 87.2186C163.923 86.6043 164.159 85.5647 164.159 85.5647C164.457 85.5175 164.75 85.4702 165.044 85.423C165.044 85.423 166.055 83.2441 166.578 83.1601C166.625 82.9501 166.678 82.7401 166.725 82.5248C167.233 81.879 167.741 81.228 168.244 80.5769C168.233 80.7449 168.406 80.8447 169.197 80.2986C169.988 78.9546 169.197 80.2986 169.689 80.2199C169.689 80.2199 169.789 79.7999 169.983 78.9493C170.308 78.9003 170.55 78.5223 170.711 77.8152C171.35 77.726 171.339 77.726 171.345 77.726C171.957 77.0277 171.491 77.0907 171.491 77.0907C171.648 77.0697 171.8 77.0487 171.957 77.0277C172.099 76.3924 172.717 75.6941 173.628 74.7805C173.628 74.7805 173.628 74.7805 174.058 74.7333C174.854 73.636 174.99 73.0217 175.535 72.3706C176.352 70.4962 176.97 70.4805 177.237 69.2782C177.604 69.2729 177.604 69.2729 177.776 68.4749C178.908 67.7136 182.548 62.4265 183.192 60.6676C184.323 58.515 185.329 57.3704 184.962 57.1971C184.837 56.5828 185.114 55.16 183.601 53.5219C183.517 53.2804 183.433 53.0388 183.339 52.8026C183.339 52.8026 183.417 52.3038 183.8 52.3458C184.088 52.8918 184.962 51.469 185.329 51.511C185.958 50.7549 188.205 49.2061 188.409 48.6286C188.713 47.7045 187.623 47.1847 187.754 46.5284C187.602 45.2263 188.168 44.7066 187.681 44.7643C187.78 44.2813 187.272 44.36 187.377 43.751C186.319 43.0369 186.282 42.0026 184.203 43.6145L184.219 43.646ZM146.612 73.2159C147.079 72.3759 147.786 72.0976 147.906 71.5516C148.21 71.3836 151.965 67.0678 152.636 68.2123C155.281 65.9862 151.201 70.281 150.771 70.3545C149.828 71.121 147.272 73.9825 146.45 74.3238C146.455 74.2555 146.125 74.8173 146.131 74.749C145.083 75.1323 145.35 75.5103 145.35 75.5103C145.172 75.2058 144.994 74.9065 144.816 74.6073C144.826 74.4078 145.68 74.3763 146.618 73.2107L146.612 73.2159ZM137.441 83.8006C136.813 83.8584 137.918 82.0838 137.918 82.0838C138.353 81.6585 138.808 81.2227 139.28 80.7764C140.516 80.0309 141.699 78.104 141.71 78.0987C141.736 77.5107 142.888 75.6521 142.998 76.3766C143.611 75.6836 144.088 76.5289 143.271 77.2534C141.569 79.1331 138.63 82.0628 137.446 83.8006H137.441ZM146.44 86.2315C146.497 85.9008 146.602 85.675 146.822 85.654C146.691 85.8483 146.565 86.0425 146.44 86.2315ZM173.482 57.6592C172.937 57.6854 173.005 56.8086 172.937 57.6907C172.916 58.2052 170.03 59.1135 169.302 60.3053C163.153 64.4478 153.238 72.0136 146.209 77.3952C145.287 77.5422 144.156 79.1646 143.941 79.4901C144.35 78.8495 144.774 78.2038 145.203 77.5527C145.235 76.9489 143.894 79.5636 143.905 79.5531C143.129 79.6581 143.135 79.6634 143.135 79.6581C143.093 79.6844 140.395 82.7821 139.756 82.8188C139.756 82.4985 139.767 82.1783 139.772 81.8632C140.474 81.774 140.474 81.7792 141.034 81.1282C141.569 81.0652 142.59 78.9546 143.176 78.86C144.004 77.7417 142.653 77.9517 143.176 78.86C143.166 78.8653 144.596 77.6525 144.643 77.0382C145.287 76.3346 145.245 76.9437 145.287 76.3346C146.303 76.1666 145.345 75.5208 146.366 75.3476C147.272 74.1872 146.298 76.1666 146.303 76.1666C147.126 76.0354 147.189 75.2111 147.697 74.119C149.603 73.5992 149.713 72.5596 150.651 71.5936C150.624 71.8666 150.598 72.1449 150.572 72.4179C150.996 72.3444 152.007 70.7535 152.73 70.029C153.819 69.8452 154.479 69.7349 154.589 68.7111C155.249 68.6009 155.312 67.9866 155.312 67.9918C156.281 67.031 157.423 66.4535 157.643 66.422C159.617 66.1122 158.931 64.4531 159.701 65.3194C159.701 65.3194 160.461 64.2273 159.806 64.3271C160.461 64.2273 160.461 64.2273 160.461 64.2273C161.115 64.1223 163.053 61.9224 164.609 60.8199C165.248 60.7411 166.28 60.6151 166.28 60.6203C166.332 60.0586 167.154 59.9693 167.154 59.9693C167.291 59.9536 167.427 59.9378 167.563 59.9273C167.579 59.7435 167.594 59.5598 167.61 59.3813C167.882 59.3498 168.15 59.3235 168.417 59.2973C167.61 59.376 167.673 58.6567 168.48 58.578C169.48 58.4782 168.422 59.2973 168.417 59.2973C169.417 59.1975 168.48 58.5727 169.475 58.4835C169.517 57.9532 169.475 58.4835 170.061 58.431C170.643 58.3837 170.695 57.8429 171.517 56.9241C171.496 57.2076 171.476 57.5016 171.455 57.7957C171.481 57.7694 174.199 55.7323 173.597 56.2836C172.041 57.7327 174.147 56.2521 174.136 56.2573C174.885 55.7165 174.173 55.748 174.168 55.7533C174.885 55.7218 174.875 55.727 174.88 55.727C175.98 55.0235 174.215 55.0917 174.922 55.0655C175.1 55.0602 175.273 55.055 175.446 55.0497C175.43 55.6798 172.963 57.6854 173.487 57.6749L173.482 57.6592ZM147.979 73.993C148.126 73.9352 148.079 73.951 147.979 73.993ZM147.958 74.0035C147.917 74.0192 147.859 74.0455 147.791 74.0717C147.843 74.0507 147.906 74.0245 147.958 74.0035ZM147.749 74.0875C147.749 74.0875 147.723 74.098 147.707 74.1032C147.718 74.1032 147.733 74.0927 147.749 74.0875Z" fill="white" style="mix-blend-mode:difference"/>
<path d="M162.917 151.745L160.173 155.972C161.498 154.612 162.425 153.294 162.917 151.745Z" fill="white" style="mix-blend-mode:difference"/>
<path d="M162.917 151.745L163.08 151.499C163.022 151.541 162.98 151.572 162.98 151.572C162.964 151.63 162.938 151.688 162.917 151.745Z" fill="white" style="mix-blend-mode:difference"/>
</svg>
